<svg viewBox="0 0 86 85" version="1.1" xmlns="http://www.w3.org/2000/svg"><title>Ecwid app store</title><g id="2019_HPC_Day-8" stroke="none" stroke-width="1" fill="none" fill-rule="evenodd"><g id="2019_Electric_Yellow_online_Day8" transform="translate(-576.000000, -6025.000000)"><rect x="0" y="0" width="1440" height="7208"></rect><g id="Icon_App-Market" transform="translate(566.000000, 6017.000000)"><g id="Group" stroke-width="1" transform="translate(25.454545, 25.454545)" stroke="#000000"><path d="M6,34.3636364 L20.7272727,34.3636364 C24.0409812,34.3636364 26.7272727,37.0499279 26.7272727,40.3636364 L26.7272727,55.0909091 C26.7272727,58.4046176 24.0409812,61.0909091 20.7272727,61.0909091 L6,61.0909091 C2.6862915,61.0909091 1.87739444e-15,58.4046176 0,55.0909091 L0,40.3636364 C-4.05812251e-16,37.0499279 2.6862915,34.3636364 6,34.3636364 Z" id="Rectangle-12-Copy-2" stroke-width="4"></path><path d="M41,0 L55.7272727,0 C59.0409812,-3.55188275e-15 61.7272727,2.6862915 61.7272727,6 L61.7272727,20.7272727 C61.7272727,24.0409812 59.0409812,26.7272727 55.7272727,26.7272727 L41,26.7272727 C37.6862915,26.7272727 35,24.0409812 35,20.7272727 L35,6 C35,2.6862915 37.6862915,6.08718376e-16 41,0 Z" id="Rectangle-12-Copy" stroke-width="4"></path><path d="M13.3636364,0 L13.3636364,0 C20.7441689,-1.35578184e-15 26.7272727,5.9831038 26.7272727,13.3636364 L26.7272727,13.3636364 C26.7272727,20.7441689 20.7441689,26.7272727 13.3636364,26.7272727 L13.3636364,26.7272727 C5.9831038,26.7272727 2.6802114e-15,20.7441689 1.77635684e-15,13.3636364 L0,13.3636364 C-9.03854558e-16,5.9831038 5.9831038,1.35578184e-15 13.3636364,0 Z" id="Rectangle-12-Copy-4" stroke-width="4"></path><path d="M41,34.3636364 L55.7272727,34.3636364 C59.0409812,34.3636364 61.7272727,37.0499279 61.7272727,40.3636364 L61.7272727,55.0909091 C61.7272727,58.4046176 59.0409812,61.0909091 55.7272727,61.0909091 L41,61.0909091 C37.6862915,61.0909091 35,58.4046176 35,55.0909091 L35,40.3636364 C35,37.0499279 37.6862915,34.3636364 41,34.3636364 Z" stroke-width="4"></path></g><rect fill="#FAE053" style="mix-blend-mode: multiply;" x="10.8181818" y="8.27272727" width="35.6363636" height="35.6363636" rx="17.8181818"></rect><rect fill="#F0F0F0" style="mix-blend-mode: multiply;" x="78.9090909" y="76.3636364" width="16.5454545" height="16.5454545" rx="8.27272727"></rect></g></g></g></svg>