<svg width="27" height="27" xmlns="http://www.w3.org/2000/svg"><g fill-rule="nonzero" fill="#FFF"><path d="M20.8528 0H6.1358C2.7478 0 0 2.749 0 6.1397v14.7219C0 24.2523 2.7478 27 6.1358 27h14.717c3.3893 0 6.1358-2.7477 6.1358-6.1384V6.1384C26.9886 2.749 24.2408 0 20.8528 0zm-3.978 7.2649c.6728 0 1.2176.545 1.2176 1.2181 0 .6731-.5448 1.2182-1.2176 1.2182-.6728 0-1.2176-.545-1.2176-1.2182 0-.673.5448-1.2181 1.2176-1.2181zm0 3.441c.6728 0 1.2176.545 1.2176 1.218 0 .6732-.5448 1.2182-1.2176 1.2182-.6728 0-1.2176-.545-1.2176-1.2181 0-.6732.5448-1.2182 1.2176-1.2182zm-3.432-3.441c.6729 0 1.2177.545 1.2177 1.2181 0 .6731-.5448 1.2182-1.2176 1.2182-.6729 0-1.2177-.545-1.2177-1.2182 0-.673.5448-1.2181 1.2177-1.2181zm0 3.441c.6729 0 1.2177.545 1.2177 1.218 0 .6732-.5448 1.2182-1.2176 1.2182-.6729 0-1.2177-.545-1.2177-1.2181 0-.6732.5448-1.2182 1.2177-1.2182zm-3.4319-3.441c.6728 0 1.2176.545 1.2176 1.2181 0 .6731-.5448 1.2182-1.2176 1.2182-.6728 0-1.2176-.545-1.2176-1.2182 0-.673.5448-1.2181 1.2176-1.2181zm0 3.441c.6728 0 1.2176.545 1.2176 1.218 0 .6732-.5448 1.2182-1.2176 1.2182-.6728 0-1.2176-.545-1.2176-1.2181 0-.6732.5448-1.2182 1.2176-1.2182zM6.7108 23.574c-1.2855 0-2.3286-1.0435-2.3286-2.3295 0-1.2872 1.0431-2.3308 2.3286-2.3308 1.2866 0 2.3298 1.0436 2.3298 2.3308.0012 1.286-1.0432 2.3295-2.3298 2.3295zm13.4591.1043c-1.2854 0-2.3285-1.0436-2.3285-2.3296 0-1.2872 1.0431-2.3308 2.3285-2.3308 1.2867 0 2.3298 1.0436 2.3298 2.3308 0 1.286-1.0431 2.3296-2.3298 2.3296zm4.091-18.949l-2.4076 8.9715c-.6427 2.3949-2.6713 3.898-5.1505 3.898h-1.588c-.5246 0-1.284-.2837-1.5991-.5801a.139.139 0 0 0-.1883 0c-.3151.2964-1.0746.5802-1.5993.5802H9.9833c-2.4001 0-4.219-1.3689-4.947-3.657L2.9887 7.5173a.4134.4134 0 0 1 .0615-.373.4128.4128 0 0 1 .3377-.1708l.3917.0013c.944.0038 1.7712.6103 2.0561 1.5095l1.5039 4.7244c.4067 1.2796 1.7084 2.1399 3.0503 2.1399l.5837-.0013c.6025 0 1.0268-.309 1.283-.5852a.7015.7015 0 0 1 .5158-.2286l1.3105.0013c.1858 0 .3666.074.4909.211.2485.2725.6891.6015 1.2967.6015l.556.0013c1.3859 0 2.7303-.9356 3.0906-2.2743l1.9494-7.2636c.2549-.9457 1.1147-1.605 2.0926-1.605h.344c.0326 0 .0652.005.0953.0176.2197.093.3164.3077.2624.5061z"/><path d="M20.17 20.5125c-.4608 0-.8348.3742-.8348.8363 0 .4622.374.8364.8347.8364a.836.836 0 0 0 .836-.8364.836.836 0 0 0-.836-.8363zM6.7108 20.4082c-.4607 0-.8348.3743-.8348.8364s.374.8364.8348.8364a.836.836 0 0 0 .836-.8364.836.836 0 0 0-.836-.8364z"/><g><path d="M71.8697 20.5212c-.6025 0-1.2612-.0295-1.553.5127-.9157 1.704-3.0063 2.2385-4.724 2.2385-3.4167 0-6.0126-2.8591-6.0126-6.3736 0-3.5144 2.5959-6.3736 6.0125-6.3736 1.5182 0 3.494.302 4.6667 2.128.3318.5166.988.3983 1.5904.3983.8445 0 .6412-1.037.3094-1.5548-1.7065-2.6574-4.512-3.2163-6.5652-3.2163-4.6192 0-8.3765 3.8652-8.3765 8.6158 0 4.7507 3.7585 8.616 8.3765 8.616 2.9863 0 5.5548-1.33 6.7049-3.4696.2907-.5397.464-1.5214-.4291-1.5214zM103.3372 8.7301c-.6025 0-1.0902.2724-1.0902.8918v14.87c0 .6193.4877.812 1.0902.812s1.0903-.1927 1.0903-.812v-14.87c.0012-.6194-.4878-.8918-1.0903-.8918zM103.3372 1.421c-.7634 0-1.3846.6387-1.3846 1.4251s.6212 1.425 1.3846 1.425c.7634 0 1.3847-.6386 1.3847-1.425.0012-.7864-.62-1.425-1.3847-1.425zM97.165 8.815c-.0212 0-.0637-.0027-.0649-.0027-.0037 0-1.0279 0-1.3397.8019-.3007.7774-1.9385 6.087-3.6725 11.2617-.056.1683-.1234.3328-.1858.4973l-3.7286-9.649c-.1659-.4138-.4129-.7248-.736-.9111-.1858-.1105-.3929-.1876-.6499-.1876-.0025 0-.0037.0013-.0062.0013-.0025 0-.0037-.0013-.0062-.0013-.257 0-.464.077-.65.1876-.3243.1863-.57.496-.736.911l-3.7285 9.649c-.0623-.1644-.1297-.3289-.1858-.4972-1.7477-5.2171-3.3718-10.4856-3.6725-11.2617-.3106-.8019-1.3821-.8006-1.4033-.7993-.5489.0116-.7672.1594-.7497.5243a.9741.9741 0 0 0 .0312.2801c.0835.3303 2.692 8.5182 4.8163 14.7325.1384.4048.4378.9804 1.1451.9804.469 0 .817-.3186.943-.6463l3.9868-10.4689a.2283.2283 0 0 1 .2084-.1465c.086.0026.1709.0502.2083.1465l3.9867 10.4689c.126.3277.499.6463.9431.6463.721 0 1.0154-.5718 1.1451-.9804 1.9934-6.2412 4.7328-14.4022 4.8163-14.7325a.9741.9741 0 0 0 .0312-.2801c.0212-.365-.197-.5127-.746-.5243zM54.079 22.9871H39.7833c-.2395 0-.4328-.1992-.4328-.4446v-8.3332h12.498c.5812 0 .837-.523.837-1.168 0-.6451-.2558-1.1681-.837-1.1681h-12.498v-7.489c0-.2595.2046-.4703.4578-.4703h14.2705c.5813 0 .837-.523.837-1.168 0-.645-.2557-1.168-.837-1.168H37.9597c-.6262 0-1.0279.6116-1.0279 1.5689l.0013 20.93c.01.6206.353 1.2477.918 1.2477H54.079c.5813 0 .837-.523.837-1.168 0-.6464-.2557-1.1694-.837-1.1694zM123.9098 1.421c-.6026 0-1.0903.2725-1.0903.8918v8.7894c-1.2387-2.0855-3.6325-2.8013-5.7406-2.8013-4.6143 0-8.3678 3.8614-8.3678 8.607 0 4.7454 3.7535 8.6068 8.3678 8.6068 1.8 0 4.6042-.929 5.7406-2.9465v1.8915c0 .0039.0025.0064.0025.0103 0 .0218.0037.0347.0075.036.0274.577.4965.7671 1.0803.7671.6025 0 1.0902-.1927 1.0902-.8121V2.3128c0-.6193-.4877-.8917-1.0902-.8917zm-6.8322 21.8527c-3.413 0-5.9777-2.8553-5.9777-6.3659 0-3.5106 2.5648-6.3659 5.9777-6.3659 1.9784 0 5.712 1.222 5.7407 5.771v1.028c-.0275 4.4756-3.9481 5.9328-5.7407 5.9328z"/></g></g></svg>