<svg viewBox="0 0 90 87" version="1.1" xmlns="http://www.w3.org/2000/svg"><title>Hands together</title><g stroke="none" stroke-width="1" fill="none" fill-rule="evenodd"><g transform="translate(-113.000000, -6025.000000)"><rect x="0" y="0" width="1440" height="7208"></rect><g transform="translate(104.000000, 6017.000000)"><g stroke-width="1" transform="translate(13.363636, 17.818182)" fill="#000000"><path d="M84.7640758,54.95506 L80.5672241,50.7737522 C79.8927086,50.1017378 78.8039927,50.106401 78.1351512,50.7837694 C77.4661377,51.4611378 77.4707801,52.5549099 78.1451237,53.2267516 L82.3418034,57.4080594 C82.6770838,57.7422531 83.1150117,57.9090909 83.5527676,57.9090909 C83.9951659,57.9090909 84.4375642,57.7386262 84.7737043,57.3980422 C85.4428897,56.7206738 85.4384193,55.6269017 84.7640758,54.95506 Z" fill-rule="nonzero"></path><path d="M75.8980826,46.920381 C75.2771587,46.2992669 74.2707406,46.2992669 73.6494988,46.920381 L73.6467964,46.9230843 C73.0258725,47.5441983 73.0273032,48.5499706 73.6482271,49.1710846 C73.9582121,49.4813236 74.3650078,49.6363636 74.7716446,49.6363636 C75.1792352,49.6363636 75.5871437,49.4806876 75.8979236,49.1698125 C76.5188475,48.5486985 76.5188475,47.5416541 75.8980826,46.920381 Z" fill-rule="nonzero"></path><path d="M62.2278078,54.5591542 L78.3504901,38.4951159 C80.7922886,36.0620086 80.7922886,32.1030767 78.350324,29.6699693 C77.4892556,28.8120241 76.4375957,28.2580518 75.3299381,28.0052378 C75.7097919,27.1916634 75.9108519,26.2987845 75.9108519,25.3747799 C75.9108519,23.707896 75.2593179,22.1408464 74.0765536,20.9623721 C73.148853,20.0378708 71.9808774,19.4408522 70.7132027,19.2257865 C71.4268825,17.0592348 70.9224048,14.5779488 69.1964463,12.8584161 C68.2474765,11.9130539 67.0672047,11.3368962 65.8354217,11.1263006 C66.0417989,10.5022953 66.1506371,9.84335632 66.1506371,9.16719883 C66.1506371,7.500315 65.4991032,5.93326539 64.3163389,4.7547911 C63.1334084,3.57631681 61.5606543,2.92714602 59.8878687,2.92714602 C58.8255742,2.92714602 57.8041564,3.18972824 56.8967279,3.68277354 L56.7363785,3.51108517 C54.6523338,1.27963301 51.7024021,0 48.6434659,0 L35.5928468,0 C34.6751161,0 33.9308619,0.741554697 33.9308619,1.6559567 L33.9308619,3.82747521 C33.9308619,4.69651308 34.0784167,5.54253775 34.3605653,6.33806584 C33.6088337,6.0269738 32.7954547,5.86356355 31.9569849,5.86356355 C30.2840331,5.86356355 28.7112789,6.51273434 27.5283485,7.69120863 C25.8015592,9.41173473 25.29758,11.894842 26.0129214,14.0620559 C24.7801413,14.2721547 23.5982079,14.8486436 22.6484073,15.7948336 C21.465643,16.9734734 20.8141091,18.540523 20.8141091,20.2072413 C20.8141091,20.8820743 20.922615,21.5400199 21.1281614,22.1627007 C19.8619821,22.3784287 18.6951697,22.9751162 17.7682999,23.8987897 C15.8612213,25.7989512 15.443648,28.6300709 16.5155801,30.9378474 C15.3805052,31.1962905 14.3379844,31.7658257 13.4941973,32.6063868 C11.0523988,35.0393286 11.0523988,38.9982605 13.4941973,41.4313679 L16.8098587,44.7348376 L0.486781114,60.9983788 C-0.162260371,61.6450661 -0.162260371,62.6935738 0.486781114,63.3404267 C0.811301856,63.6636048 1.23668491,63.825525 1.66190179,63.825525 C2.08711868,63.825525 2.51250173,63.6637704 2.83702248,63.3404267 L19.3176248,46.9196011 C20.2506427,47.4500635 21.3094477,47.7338378 22.4129511,47.7338378 C24.0857367,47.7338378 25.6584909,47.084667 26.8414213,45.9060271 C28.1265434,44.6257319 28.7343759,42.9225898 28.6667467,41.2417987 C28.7509924,41.2452756 28.8352382,41.247759 28.919484,41.247759 C30.5229787,41.2475934 32.1273043,40.6393166 33.3479542,39.423094 C34.5307185,38.2444542 35.1822525,36.6774046 35.1822525,35.0106863 C35.1822525,34.926415 35.1794276,34.8426403 35.1761043,34.7588657 C35.2593531,34.7621769 35.3426019,34.7648259 35.4260169,34.7648259 C37.0296778,34.7648259 38.633671,34.1565491 39.8544871,32.940161 C41.0372514,31.7615211 41.6887853,30.1944715 41.6887853,28.5277532 C41.6887853,28.4434819 41.6859605,28.3597072 41.6826372,28.2759326 C41.765886,28.2792438 41.8491348,28.2818928 41.9325498,28.2818928 C43.5363768,28.2818928 45.1402038,27.673616 46.36102,26.4572279 C48.6554298,24.1711401 48.7935131,20.5382009 46.7764331,18.0893651 L57.808809,7.09700461 C58.3639671,6.54369454 59.1017409,6.239225 59.8868717,6.239225 C60.6720025,6.239225 61.4099424,6.54369454 61.9651005,7.09700461 C62.5202587,7.65014911 62.8258366,8.38524687 62.8258366,9.16752996 C62.8258366,9.94964748 62.5202587,10.6850764 61.9649344,11.2380553 L60.3383427,12.8587472 L54.4364852,18.7391981 C53.7874437,19.3858855 53.7874437,20.4343931 54.4364852,21.0812461 C54.7610059,21.4044242 55.186389,21.5663444 55.6116059,21.5663444 C56.0368227,21.5663444 56.4622058,21.4045897 56.7867265,21.0812461 L62.6885841,15.2007951 C63.8342935,14.0590757 65.6988338,14.0589102 66.8448756,15.2006296 C67.9907512,16.3425145 67.9907512,18.2001264 66.8448756,19.3420114 L65.2181177,20.9628688 L60.9430181,25.2224623 C60.2939766,25.8691497 60.2939766,26.9176574 60.9430181,27.5645103 C61.2675388,27.8876884 61.6929219,28.0496086 62.1181387,28.0496086 C62.5433556,28.0496086 62.9687387,27.8878539 63.2932594,27.5645103 L67.5683591,23.3049168 C68.1235172,22.7516067 68.8614571,22.4471372 69.6464218,22.4471372 C70.4315526,22.4471372 71.1694925,22.7516067 71.7246506,23.3049168 C72.2798087,23.8580613 72.5853866,24.593159 72.5853866,25.3754421 C72.5853866,26.1575597 72.2798087,26.8929885 71.7244844,27.4459675 L69.4917219,29.6706316 L67.4493848,31.705561 C66.8003433,32.3522483 66.8003433,33.400756 67.4493848,34.0476089 C67.7739055,34.370787 68.1992886,34.5327072 68.6245055,34.5327072 C69.0497223,34.5327072 69.4751054,34.3709526 69.7996261,34.0476089 L71.8434588,32.0111894 C72.9895005,30.8712912 74.8528777,30.8714568 75.9982548,32.0126795 C77.1442966,33.1543989 77.1442966,35.0121764 75.9982548,36.1540613 L59.8755725,52.2180996 C55.8271222,56.2520314 50.4465251,58.5872912 44.7249569,58.7942444 C44.3043926,58.8094762 43.9049313,58.9831513 43.6078279,59.2805017 L28.7141038,74.1751716 C28.0662254,74.8230179 28.0680532,75.8715256 28.7184241,76.517054 C29.0426125,76.8389076 29.4669985,77 29.8913846,77 C30.3175985,77 30.7441447,76.8375831 31.0686654,76.5127494 L42.0234422,65.5574749 C44.8060455,67.3361135 48.078504,68.181807 51.4059633,67.9626022 L59.9797581,76.5054646 C60.3042788,76.8286428 60.7296619,76.9905629 61.1548788,76.9905629 C61.5802618,76.9905629 62.0054787,76.8288083 62.3299994,76.5054646 C62.9790409,75.8587773 62.9790409,74.8102696 62.3299994,74.1634167 L53.2141736,65.0796614 C52.8690483,64.7359535 52.3894954,64.5602916 51.9031297,64.6000267 L51.3762197,64.6430729 C48.9440589,64.841748 46.5399799,64.3109544 44.4409804,63.1389371 L45.5090907,62.070893 C51.826029,61.6826488 57.7401828,59.0306678 62.2278078,54.5591542 Z M24.49118,43.5643103 C23.9360219,44.1176204 23.1979158,44.4220899 22.4131173,44.4220899 C21.6279865,44.4220899 20.8900466,44.1176204 20.3350546,43.5643103 L15.8442724,39.0899822 C14.6983969,37.9482628 14.6983969,36.0904853 15.8442724,34.9486004 C16.3994306,34.3952903 17.1375366,34.0908207 17.9225013,34.0908207 C18.707466,34.0908207 19.445572,34.3952903 20.000564,34.9486004 L24.4913461,39.4229285 C25.6370556,40.5646479 25.6370556,42.4224253 24.49118,43.5643103 Z M30.9980452,37.0810461 C29.8520034,38.2227655 27.9871308,38.2227655 26.8415875,37.0810461 L22.3508053,32.6065524 L20.1178766,30.3817228 C18.972001,29.2400034 18.972001,27.3822259 20.1178766,26.2405065 C20.6730347,25.6871964 21.4111408,25.3827269 22.1959393,25.3827269 C22.9810701,25.3827269 23.71901,25.6871964 24.274002,26.2405065 L30.9975467,32.9396643 C30.9975467,32.9396643 30.9975467,32.9396643 30.9977128,32.9396643 C31.5530371,33.4929743 31.858615,34.2282377 31.858615,35.0103552 C31.858615,35.7924727 31.5530371,36.5279016 30.9980452,37.0810461 Z M37.5045781,30.5979475 C36.3585363,31.7395013 34.4938298,31.7396669 33.3481204,30.5979475 L24.9978178,22.2779322 C24.4426597,21.7247877 24.1370818,20.98969 24.1370818,20.2074069 C24.1370818,19.4252894 24.4426597,18.6898605 24.997984,18.1368815 C25.5709218,17.5660218 26.3236504,17.280592 27.0760467,17.280592 C27.8281106,17.280592 28.5800084,17.5656907 29.15278,18.135557 L32.958629,21.9276019 L37.5042457,26.4567312 L37.5044119,26.4567312 C38.0594038,27.0098757 38.3649817,27.7449735 38.3649817,28.5272565 C38.3653141,29.3095396 38.0597362,30.0449685 37.5045781,30.5979475 Z M44.0112771,24.1148488 C42.8654015,25.2565682 41.0008612,25.2565682 39.8549856,24.1148488 L31.504683,15.7948336 C31.5038522,15.7940058 31.5028552,15.793178 31.5018582,15.7921846 L29.8779252,14.1741417 C28.7320496,13.0322567 28.7320496,11.1746448 29.8779252,10.0327599 C30.450863,9.46173462 31.2035916,9.17630477 31.956154,9.17630477 C32.7087165,9.17630477 33.4614451,9.46173462 34.0342167,10.0327599 L44.0109448,19.9733014 C44.5662691,20.5264459 44.871847,21.2617093 44.871847,22.0438268 C44.8720131,22.8262754 44.5666014,23.5618699 44.0112771,24.1148488 Z M44.4482917,15.7254629 L39.8833998,11.1771283 C40.4010046,11.2872274 40.9332319,11.345671 41.4749307,11.3455054 C41.4870607,11.3455054 41.4993569,11.3455054 41.5116532,11.3455054 L46.0725571,11.3241478 C46.9902878,11.3198432 47.7310525,10.5749773 47.7267322,9.66040969 C47.7224119,8.74849112 46.9791547,8.01223443 46.0649135,8.01223443 C46.0622548,8.01223443 46.0595962,8.01223443 46.0569376,8.01223443 L41.4960336,8.033592 C41.4890547,8.033592 41.4824081,8.033592 41.4754291,8.033592 C40.3516535,8.033592 39.2946763,7.59899028 38.4977478,6.80876019 C37.6958343,6.01339767 37.2543332,4.95479067 37.2543332,3.82730965 L37.2543332,3.31174785 L48.6429674,3.31174785 C50.7823451,3.31174785 52.8452867,4.20661347 54.3028883,5.76720614 L54.3705176,5.83955698 L44.4482917,15.7254629 Z" fill-rule="nonzero"></path></g><rect fill="#FAE053" style="mix-blend-mode: multiply;" x="9.54545455" y="8.90909091" width="35.6363636" height="35.6363636" rx="17.8181818"></rect><rect fill="#F0F0F0" style="mix-blend-mode: multiply;" x="80.1818182" y="76.3636364" width="16.5454545" height="16.5454545" rx="8.27272727"></rect></g></g></g></svg>