<svg xmlns="http://www.w3.org/2000/svg" width="302" height="91" viewBox="0 0 302 91" fill="none"><path fill="#002E47" d="M32.134 49.498.267 38.754l44.338-16.538 20.935-7.807-20.935 66.202-12.471-31.113Z"></path><path fill="#FF9D28" d="M.267 39.025h44.338V22.487L.267 39.025Z"></path><path fill="#69C3EA" d="M44.605 22.487v58.412L65.538 14.68l-20.934 7.807Z"></path><path fill="#004F80" d="M44.605 39.041H27.838L44.605 80.9V39.04Z"></path><path fill="#E14748" d="m.267 39.025 31.867 10.744-4.296-10.744H.267Z"></path><path fill="#343739" d="M101.831 60.418c-.24.239-.641.542-1.218.91-.561.367-1.298.718-2.212 1.085-.914.367-2.02.67-3.334.942-1.315.255-2.821.4-4.52.4-3.287 0-6.108-.528-8.496-1.565-2.389-1.054-4.36-2.507-5.915-4.39-1.555-1.868-2.71-4.087-3.43-6.657-.722-2.555-1.09-5.38-1.09-8.445 0-3.065.4-5.89 1.185-8.493.786-2.602 1.972-4.853 3.559-6.737 1.587-1.9 3.558-3.384 5.915-4.438 2.372-1.07 5.146-1.596 8.351-1.596 1.587 0 3.014.143 4.28.43 1.283.288 2.389.623 3.335 1.007.945.383 1.747.782 2.372 1.213.625.43 1.106.782 1.427 1.053.369.32.673.703.946 1.15.256.447.4.926.4 1.453 0 .814-.304 1.612-.913 2.426a17.92 17.92 0 0 1-2.004 2.235 25.97 25.97 0 0 0-1.635-1.485 10.614 10.614 0 0 0-2.036-1.325c-.754-.383-1.603-.702-2.549-.973-.945-.256-2.02-.4-3.19-.4-2.068 0-3.799.415-5.194 1.246-1.394.83-2.516 1.9-3.366 3.24-.85 1.325-1.458 2.858-1.827 4.566a24.807 24.807 0 0 0-.545 5.236c0 1.9.176 3.704.545 5.444.369 1.74.994 3.272 1.875 4.597a10.213 10.213 0 0 0 3.495 3.21c1.443.813 3.222 1.212 5.37 1.212 1.138 0 2.18-.143 3.126-.43.946-.288 1.795-.623 2.516-1.022.722-.4 1.363-.83 1.908-1.277.545-.448 1.01-.83 1.363-1.15.24.287.528.623.849 1.022.321.399.625.83.914 1.277.288.447.529.894.721 1.325.209.447.305.846.305 1.213 0 .527-.096.974-.305 1.325-.208.32-.529.719-.978 1.166ZM133.138 55.772c0 3.208.465 5.54 1.411 6.992-.737.287-1.411.479-2.052.607a10.01 10.01 0 0 1-1.988.175c-1.458 0-2.58-.287-3.334-.846-.753-.575-1.234-1.373-1.443-2.427-.897.942-2.083 1.725-3.542 2.38-1.459.654-3.254.973-5.37.973-1.106 0-2.196-.16-3.302-.447a8.651 8.651 0 0 1-2.998-1.485c-.897-.686-1.635-1.612-2.196-2.761-.577-1.15-.849-2.554-.849-4.215 0-2.06.496-3.736 1.49-5.029a10.647 10.647 0 0 1 3.751-3.065c1.507-.75 3.142-1.26 4.889-1.548a45.121 45.121 0 0 1 4.825-.543c.497-.048.962-.064 1.443-.064h1.314v-1.101c0-1.565-.416-2.666-1.25-3.32-.833-.655-2.196-.99-4.055-.99-1.748 0-3.302.287-4.681.846a40.237 40.237 0 0 0-4.008 1.947 8.958 8.958 0 0 1-1.378-2.282c-.353-.83-.513-1.453-.513-1.852 0-.575.321-1.118.946-1.645.625-.527 1.491-1.005 2.597-1.436 1.106-.431 2.356-.767 3.782-1.038 1.427-.271 2.934-.399 4.521-.399 2.196 0 4.056.223 5.594.67 1.523.447 2.774 1.134 3.735 2.076.962.925 1.635 2.09 2.052 3.496.401 1.404.609 3.033.609 4.9v11.43Zm-7.822-7.056h-.85c-.288 0-.577 0-.85.063-1.025.08-2.019.208-3.029.368-.994.16-1.891.447-2.661.846-.769.399-1.411.926-1.891 1.58-.497.655-.738 1.485-.738 2.49 0 1.134.321 2.092.978 2.89s1.747 1.182 3.302 1.182c.77 0 1.507-.096 2.196-.304.689-.208 1.299-.463 1.828-.798.528-.32.945-.687 1.25-1.07.304-.383.465-.734.465-1.07v-6.177ZM148.349 36.727c.641-.766 1.667-1.549 3.046-2.347 1.378-.798 3.126-1.181 5.242-1.181 1.506 0 2.933.255 4.296.766 1.362.51 2.564 1.325 3.622 2.459 1.058 1.133 1.892 2.634 2.533 4.501.625 1.868.946 4.151.946 6.88 0 3.162-.369 5.764-1.09 7.823-.738 2.044-1.667 3.672-2.838 4.87-1.154 1.197-2.452 2.042-3.863 2.522-1.426.478-2.837.734-4.264.734-1.17 0-2.196-.128-3.077-.4-.866-.27-1.619-.558-2.229-.877-.609-.32-1.074-.655-1.394-.974-.321-.32-.529-.543-.609-.67V75.79h-8.304V34.045c.209-.032.449-.08.738-.128.24-.032.529-.064.865-.096.321-.015.722-.032 1.17-.032 1.347 0 2.501.224 3.447.671.914.463 1.507 1.213 1.763 2.267Zm10.997 11.254c0-1.213-.096-2.346-.305-3.4-.208-1.053-.529-1.963-1.01-2.746a4.737 4.737 0 0 0-1.891-1.788c-.786-.43-1.748-.638-2.886-.638-1.699 0-2.885.32-3.558.974-.674.654-1.01 1.357-1.01 2.123v12.899c.32.319.897.702 1.731 1.149.834.447 1.795.67 2.885.67 2.068 0 3.591-.814 4.553-2.426 1.01-1.628 1.491-3.895 1.491-6.817ZM174.43 58.454a10.373 10.373 0 0 1-.545-2.554 30.09 30.09 0 0 1-.128-2.682v-28.24c.288-.032.593-.08.913-.128.289-.032.593-.064.914-.096.321-.016.657-.032.978-.032.657 0 1.298.064 1.956.176a4.724 4.724 0 0 1 1.779.734c.529.367.962.862 1.282 1.485.321.622.481 1.453.481 2.458v4.326h8.56v6.146h-8.56v12.98c0 2.825 1.154 4.245 3.479 4.245.577 0 1.106-.095 1.619-.27a9.182 9.182 0 0 0 1.378-.607c.401-.224.77-.463 1.074-.703.305-.24.513-.43.641-.543.61.894 1.074 1.66 1.411 2.315.321.654.481 1.261.481 1.836 0 .527-.209 1.053-.641 1.565-.433.51-1.026.99-1.796 1.404-.769.431-1.715.782-2.805 1.038-1.106.271-2.308.399-3.607.399-2.532 0-4.488-.495-5.898-1.453-1.411-.942-2.389-2.219-2.966-3.8ZM211.667 57.656c1.026 0 1.924-.112 2.693-.335a11.3 11.3 0 0 0 2.084-.814 8.587 8.587 0 0 0 1.587-1.07c.449-.383.866-.734 1.234-1.07.497.607.994 1.39 1.539 2.347.529.958.802 1.74.802 2.347 0 .894-.513 1.708-1.523 2.426-.85.655-2.068 1.214-3.639 1.677-1.571.462-3.414.702-5.53.702-1.907 0-3.799-.24-5.659-.734a12.439 12.439 0 0 1-4.953-2.554c-1.442-1.214-2.613-2.842-3.51-4.901-.898-2.044-1.347-4.63-1.347-7.759 0-2.554.401-4.757 1.186-6.609.802-1.852 1.86-3.384 3.174-4.597a12.785 12.785 0 0 1 4.489-2.683 15.637 15.637 0 0 1 5.129-.845c2.277 0 4.216.35 5.803 1.07 1.587.702 2.885 1.66 3.879 2.857a11.352 11.352 0 0 1 2.164 4.102c.449 1.549.674 3.161.674 4.87v.845c0 .32 0 .67-.032 1.038-.033.367-.049.718-.065 1.07a4.36 4.36 0 0 1-.096.814h-18.017c.16 2.235.865 4.087 2.084 5.571 1.25 1.5 3.19 2.235 5.85 2.235Zm2.79-12.356c0-1.947-.385-3.528-1.139-4.741-.753-1.213-2.115-1.82-4.087-1.82-1.683 0-3.03.575-4.023 1.74-1.01 1.15-1.507 2.762-1.507 4.837h10.756V45.3ZM236.434 36.887c.24-.367.577-.766.978-1.213.4-.447.913-.846 1.491-1.213a9.157 9.157 0 0 1 1.955-.91 7.12 7.12 0 0 1 2.292-.367c.481 0 1.01.047 1.555.127.545.08 1.058.24 1.523.447.465.224.85.527 1.138.91.289.383.433.862.433 1.42 0 .879-.224 1.9-.673 3.05-.449 1.15-.898 2.123-1.347 2.937-.689-.574-1.378-1.005-2.084-1.309-.689-.303-1.507-.463-2.436-.463-1.266 0-2.325.367-3.174 1.102-.85.734-1.282 1.612-1.282 2.618v19.7h-8.304V34.028c.209-.032.449-.08.738-.127a26.7 26.7 0 0 1 .849-.096c.321-.016.705-.032 1.154-.032 1.299 0 2.437.255 3.399.75.945.543 1.538 1.31 1.795 2.363ZM260.046 36.887c.238-.367.577-.766.977-1.213.4-.447.913-.846 1.49-1.213a9.22 9.22 0 0 1 1.957-.91 7.11 7.11 0 0 1 2.292-.367c.48 0 1.011.047 1.554.127.547.08 1.059.24 1.524.447.464.224.848.527 1.138.91.287.383.431.862.431 1.42 0 .879-.223 1.9-.672 3.05-.449 1.15-.897 2.123-1.346 2.937-.69-.574-1.38-1.005-2.085-1.309-.69-.303-1.505-.463-2.436-.463-1.267 0-2.324.367-3.173 1.102-.851.734-1.284 1.612-1.284 2.618v19.7h-8.302V34.028c.208-.032.449-.08.736-.127.241-.032.529-.064.849-.096.321-.016.705-.032 1.154-.032 1.3 0 2.439.255 3.401.75.961.543 1.554 1.31 1.795 2.363ZM299.704 55.772c0 3.208.465 5.54 1.411 6.992-.739.287-1.411.479-2.052.607-.625.127-1.3.175-1.987.175-1.475 0-2.583-.287-3.337-.846-.751-.575-1.233-1.373-1.441-2.427-.897.942-2.085 1.725-3.544 2.38-1.457.654-3.252.973-5.367.973-1.108 0-2.198-.16-3.303-.447a8.642 8.642 0 0 1-2.998-1.485c-.898-.686-1.636-1.612-2.196-2.761-.577-1.15-.851-2.554-.851-4.215 0-2.06.498-3.736 1.493-5.029.992-1.293 2.244-2.314 3.749-3.065 1.508-.75 3.141-1.26 4.89-1.548a45.048 45.048 0 0 1 4.824-.543c.498-.048.962-.064 1.444-.064h1.313v-1.101c0-1.565-.416-2.666-1.249-3.32-.833-.655-2.198-.99-4.057-.99-1.746 0-3.3.287-4.68.846a40.1 40.1 0 0 0-4.006 1.947 8.88 8.88 0 0 1-1.38-2.282c-.353-.83-.512-1.453-.512-1.852 0-.575.32-1.118.946-1.645.626-.527 1.49-1.005 2.595-1.436 1.108-.431 2.357-.767 3.785-1.038 1.426-.271 2.931-.399 4.519-.399 2.198 0 4.057.223 5.596.67 1.523.447 2.772 1.134 3.718 2.076.962.925 1.634 2.09 2.052 3.496.4 1.404.607 3.033.607 4.9v11.43h.018Zm-7.824-7.056h-.849c-.287 0-.577 0-.849.063-1.025.08-2.02.208-3.031.368-.992.16-1.89.447-2.659.846-.769.399-1.411.926-1.893 1.58-.479.655-.736 1.485-.736 2.49 0 1.134.321 2.092.977 2.89.657.798 1.747 1.182 3.303 1.182.77 0 1.506-.096 2.196-.304.689-.208 1.297-.463 1.828-.798.528-.32.944-.687 1.249-1.07.305-.383.464-.734.464-1.07v-6.177Z"></path></svg>